<svg t="1629956206467" class="icon" viewBox="0 0 1024 1024" version="1.1" xmlns="http://www.w3.org/2000/svg" p-id="6881" width="128" height="128"><path d="M123.44 737.33333333h48V965.33333333h-48zM123.44 53.33333333h48v547.2h-48zM489.152 53.33333333h48v228h-48zM489.152 418.13333333h48V965.33333333h-48zM854.864 691.73333333h48V965.33333333h-48zM854.864 53.33333333h48v501.6h-48z" p-id="6882"></path><path d="M146.288 737.33333333c37.872 0 68.592-30.624 68.592-68.4S184.16 600.53333333 146.24 600.53333333s-68.592 30.624-68.592 68.4 30.72 68.4 68.592 68.4z m0 45.6A114.144 114.144 0 0 1 32 668.93333333a114.144 114.144 0 0 1 114.288-114 114.144 114.144 0 0 1 114.24 114 114.144 114.144 0 0 1-114.24 114zM512 418.13333333c37.872 0 68.592-30.624 68.592-68.4S549.872 281.33333333 512 281.33333333s-68.592 30.624-68.592 68.4S474.128 418.13333333 512 418.13333333z m0 45.6a114.144 114.144 0 0 1-114.288-114A114.144 114.144 0 0 1 512 235.73333333a114.144 114.144 0 0 1 114.288 114A114.144 114.144 0 0 1 512 463.73333333zM877.712 691.73333333c37.872 0 68.592-30.624 68.592-68.4s-30.72-68.4-68.592-68.4-68.592 30.624-68.592 68.4 30.72 68.4 68.592 68.4z m0 45.6a114.144 114.144 0 0 1-114.24-114 114.144 114.144 0 0 1 114.24-114A114.144 114.144 0 0 1 992 623.33333333a114.144 114.144 0 0 1-114.288 114z" p-id="6883"></path></svg>