<svg t="1629958213094" class="icon" viewBox="0 0 1024 1024" version="1.1" xmlns="http://www.w3.org/2000/svg" p-id="7222" width="128" height="128"><path d="M407.338667 455.68H133.632C107.093333 455.68 85.333333 433.92 85.333333 407.296V133.632C85.333333 107.093333 107.093333 85.333333 133.632 85.333333h273.706667c26.581333 0 48.298667 21.76 48.298666 48.298667v273.706667c0 26.581333-21.76 48.298667-48.298666 48.298666z m0-48.341333v24.149333-24.149333zM133.632 133.632v273.706667h273.706667V133.632H133.632zM407.338667 938.666667H133.632C107.093333 938.666667 85.333333 916.906667 85.333333 890.368v-273.706667c0-26.581333 21.76-48.298667 48.298667-48.298666h273.706667c26.581333 0 48.298667 21.76 48.298666 48.298666v273.706667c0 26.581333-21.76 48.298667-48.298666 48.298667z m0-48.298667v24.149333-24.149333z m-273.706667-273.706667v273.706667h273.706667v-273.706667H133.632zM890.368 455.68h-273.706667c-26.581333 0-48.298667-21.76-48.298666-48.341333V133.632c0-26.581333 21.76-48.298667 48.298666-48.298667h273.706667C916.949333 85.333333 938.666667 107.093333 938.666667 133.632v273.706667c0 26.581333-21.76 48.298667-48.298667 48.298666z m0-48.341333v24.149333-24.149333z m-273.706667-273.706667v273.706667h273.706667V133.632h-273.706667zM890.368 938.666667h-273.706667c-26.581333 0-48.298667-21.76-48.298666-48.298667v-273.706667c0-26.581333 21.76-48.298667 48.298666-48.298666h273.706667c26.581333 0 48.298667 21.76 48.298667 48.298666v273.706667c0 26.581333-21.76 48.298667-48.298667 48.298667z m0-48.298667v24.149333-24.149333z m-273.706667-273.706667v273.706667h273.706667v-273.706667h-273.706667z" p-id="7223"></path></svg>