<svg t="1629266310290" class="icon" viewBox="0 0 1024 1024" version="1.1" xmlns="http://www.w3.org/2000/svg" p-id="6759" width="128" height="128"><path d="M992.375 465.6875c0-55.21875-44.90625-100.21875-100.21875-100.21875H654.59375V167.1875c0-68.0625-55.3125-123.375-123.375-123.375h-33.09375c-68.0625 0-123.375 55.3125-123.375 123.375v198.28125H132.125C76.90625 365.46875 32 410.375 32 465.6875c0 45.09375 30.1875 82.875 71.25 95.4375v349.6875c0 44.4375 36.09375 80.53125 80.53125 80.53125h663c44.4375 0 80.53125-36.09375 80.53125-80.53125V559.15625c37.875-14.25 65.0625-50.625 65.0625-93.46875zM436.71875 167.1875c0-33.84375 27.5625-61.40625 61.40625-61.40625h33.09375c33.84375 0 61.40625 27.5625 61.40625 61.40625v198.28125H436.71875V167.1875z m410.0625 762.1875H744.5V802.34375c0-17.15625-13.875-30.9375-30.9375-30.9375s-30.9375 13.875-30.9375 30.9375v127.03125H546.3125V802.34375c0-17.15625-13.875-30.9375-30.9375-30.9375-17.15625 0-30.9375 13.875-30.9375 30.9375v127.03125H348.03125V802.34375c0-17.15625-13.875-30.9375-30.9375-30.9375-17.15625 0-30.9375 13.875-30.9375 30.9375v127.03125H183.78125c-10.21875 0-18.5625-8.34375-18.5625-18.5625v-345h700.125v344.90625c0 10.3125-8.34375 18.65625-18.5625 18.65625z m45.46875-425.53125H132.125c-21.09375 0-38.15625-17.15625-38.15625-38.15625 0-21.09375 17.15625-38.25 38.15625-38.25h760.03125c21.09375 0 38.25 17.15625 38.25 38.25 0 21.09375-17.15625 38.15625-38.15625 38.15625z" p-id="6760"></path></svg>