<?xml version="1.0" standalone="no"?><!DOCTYPE svg PUBLIC "-//W3C//DTD SVG 1.1//EN" "http://www.w3.org/Graphics/SVG/1.1/DTD/svg11.dtd"><svg t="1584163205802" class="icon" viewBox="0 0 1024 1024" version="1.1" xmlns="http://www.w3.org/2000/svg" p-id="6117" xmlns:xlink="http://www.w3.org/1999/xlink" width="100" height="100"><defs><style type="text/css"></style></defs><path d="M984.99 1022.878a36.571 36.571 0 0 1-27.452-11.702L11.459 67.486a39.741 39.741 0 0 1 0-55.393 39.838 39.838 0 0 1 55.491 0l945.445 944.225a39.107 39.107 0 0 1-27.405 66.512" p-id="6118"></path><path d="M39.546 1022.878a39.253 39.253 0 0 1-27.356-67.145L956.904 12.142c16.335-14.385 41.106-13.702 55.49 2.584a39.01 39.01 0 0 1 0 52.81L66.95 1011.81a38.522 38.522 0 0 1-27.404 11.068" p-id="6119"></path></svg>