<svg t="1630391225341" class="icon" viewBox="0 0 1024 1024" version="1.1" xmlns="http://www.w3.org/2000/svg" p-id="7259" width="128" height="128"><path d="M990.29143703 929.00314075H33.70856297c-6.79632592 0-12.25765925-5.46133333-12.25765927-12.25765927v-24.51531851c0-6.79632592 5.46133333-12.25765925 12.25765927-12.25765927h85.80361481V438.45404445c0-27.06394075 21.9666963-49.03063703 49.03063704-49.03063704h196.2439111v-98.06127408c0-27.06394075 21.9666963-49.03063703 49.03063705-49.03063703h196.24391111v-98.18263705c0-27.06394075 21.9666963-49.03063703 49.03063703-49.03063703H855.45718518c27.06394075 0 49.03063703 21.9666963 49.03063704 49.03063703v735.94500742h85.80361481c6.79632592 0 12.25765925 5.46133333 12.25765927 12.25765925v24.51531853c0 6.67496297-5.46133333 12.1362963-12.25765927 12.1362963zM364.78672592 438.45404445H168.54281482v441.51845925h196.2439111V438.45404445z m245.27454816-147.21327408H413.93872592v588.73173333h196.24391111V291.24077037zM855.45718518 144.0274963H659.21327408v735.9450074H855.45718518V144.0274963z m0 0" p-id="7260"></path></svg>