<svg t="1629266038576" class="icon" viewBox="0 0 1024 1024" version="1.1" xmlns="http://www.w3.org/2000/svg" p-id="6729" width="128" height="128"><path d="M897.70666667 238.08c0 14.50666667-11.09333333 25.6-25.6 25.6H151.89333333c-14.50666667 0-25.6-11.09333333-25.6-25.6s11.09333333-25.6 25.6-25.6h720.21333334c13.65333333 0 25.6 11.09333333 25.6 25.6z" fill="#3F3F3F" p-id="6730"></path><path d="M669.01333333 263.68H354.98666667l-1.70666667-26.45333333v-7.68c0-92.16 71.68-167.25333333 158.72-167.25333334 87.89333333 0 158.72 75.09333333 158.72 167.25333334v8.53333333l-1.70666667 25.6z m-263.68-51.2h213.33333334c-7.68-56.32-52.90666667-98.98666667-106.66666667-98.98666667s-98.98666667 42.66666667-106.66666667 98.98666667zM512 815.78666667c-14.50666667 0-25.6-11.09333333-25.6-25.6v-375.46666667c0-14.50666667 11.09333333-25.6 25.6-25.6s25.6 11.09333333 25.6 25.6v375.46666667c0 13.65333333-11.09333333 25.6-25.6 25.6zM640 815.78666667c-14.50666667 0-25.6-11.09333333-25.6-25.6v-375.46666667c0-14.50666667 11.09333333-25.6 25.6-25.6s25.6 11.09333333 25.6 25.6v375.46666667c0 13.65333333-11.09333333 25.6-25.6 25.6zM384 815.78666667c-14.50666667 0-25.6-11.09333333-25.6-25.6v-375.46666667c0-14.50666667 11.09333333-25.6 25.6-25.6s25.6 11.09333333 25.6 25.6v375.46666667c0 13.65333333-11.09333333 25.6-25.6 25.6z" fill="#3F3F3F" p-id="6731"></path><path d="M734.72 962.56H289.28c-38.4 0-69.97333333-31.57333333-69.97333333-69.97333333V212.48h586.24v680.10666667c0 38.4-31.57333333 69.97333333-70.82666667 69.97333333zM269.65333333 263.68v628.90666667c0 10.24 8.53333333 18.77333333 18.77333334 18.77333333H733.86666667c10.24 0 19.62666667-8.53333333 19.62666666-18.77333333V263.68H269.65333333z"  p-id="6732"></path></svg>