<svg t="1615342420784" class="icon" viewBox="0 0 1024 1024" version="1.1" xmlns="http://www.w3.org/2000/svg" p-id="2763" width="128" height="128"><path d="M930.533842 324.395725c-14.655084 0-29.310168 14.527092-29.310168 29.11818v590.299107c0 7.295544-7.295544 14.591088-14.655085 14.591088H80.666958c-7.295544 0-14.655084-7.295544-14.655084-14.591088V142.199113c0-7.295544 7.35954-14.591088 14.71908-14.591089h593.434911c14.71908 0 29.310168-14.591088 29.310168-29.182176 0-14.527092-14.655084-29.11818-29.310168-29.11818H80.666958C36.63771 69.307668 0.031998 98.425848 0.031998 142.135117v801.613899C0.031998 987.586276 36.63771 1024 80.666958 1024h805.901631c43.965252 0 80.63496-36.47772 80.634961-80.186988V353.513905c-7.35954-14.591088-22.014624-29.11818-36.669708-29.11818zM1018.464346 10.943316c-14.655084-14.591088-29.310168-14.591088-43.965252 0L263.823511 717.907131c-14.71908 14.591088-14.71908 29.182176 0 43.709268 7.295544 7.295544 14.655084 7.295544 21.950628 7.295544 7.35954 0 14.71908 0 22.014624-7.295544L1018.464346 54.71658c7.35954-7.295544 7.35954-29.11818 0-43.709268z"  p-id="2764"></path></svg>