<svg t="1629958234083" class="icon" viewBox="0 0 1024 1024" version="1.1" xmlns="http://www.w3.org/2000/svg" p-id="7364" width="128" height="128"><path d="M413.26988115 112.3846658h197.18406953v58.685735H413.26988115z" p-id="7365"></path><path d="M787.47774419 112.3846658v58.82381907h98.45395069v747.5872216H138.06830512V171.20848487h98.17778253v-58.82381907H79.52065422v865.09677565h864.95869156V112.3846658z" p-id="7366"></path><path d="M778.36419476 401.9469864l-41.42522468-41.56330877-306.82283088 306.96091496L287.06102992 524.42756741l-41.42522468 41.42522469 184.48033396 184.48033397zM296.03649526 237.21267621h57.8572305c0.27616816 0 0.55233633-0.27616816 0.55233632-0.55233633V47.07089488c0-0.27616816-0.27616816-0.55233633-0.55233632-0.55233633h-57.8572305c-0.27616816 0-0.55233633 0.27616816-0.55233631 0.55233633v189.589445c0 0.27616816 0.27616816 0.55233633 0.55233631 0.55233633zM670.24435831 237.21267621h57.85723049c0.27616816 0 0.55233633-0.27616816 0.55233634-0.55233633V47.07089488c0-0.27616816-0.27616816-0.55233633-0.55233634-0.55233633h-57.85723049c-0.27616816 0-0.55233633 0.27616816-0.55233633 0.55233633v189.589445c0 0.27616816 0.13808409 0.55233633 0.55233633 0.55233633z" p-id="7367"></path></svg>