<svg t="1629254543902" class="icon" viewBox="0 0 1024 1024" version="1.1" xmlns="http://www.w3.org/2000/svg" p-id="6667" width="128" height="128"><path d="M88.25000029 962c-15.00000029 0-26.25000029-11.25-26.25000029-26.25000029V88.25000029C62 73.25 73.25 62 88.25000029 62c15.00000029 0 26.25000029 11.25 26.24999942 26.25000029v847.49999942c0 15.00000029-11.25 26.25000029-26.24999942 26.25000029z m847.49999942 0c-15.00000029 0-26.25000029-11.25-26.24999942-26.25000029V88.25000029c0-15.00000029 11.25-26.25000029 26.24999942-26.25000029 15.00000029 0 26.25000029 11.25 26.25000029 26.25000029v847.49999942c0 15.00000029-11.25 26.25000029-26.25000029 26.25000029z" p-id="6668"></path><path d="M935.74999971 962H88.25000029c-15.00000029 0-26.25000029-11.25-26.25000029-26.25000029 0-15.00000029 11.25-26.25000029 26.25000029-26.24999942h847.49999942c15.00000029 0 26.25000029 11.25 26.25000029 26.24999942 0 15.00000029-11.25 26.25000029-26.25000029 26.25000029z m0-847.50000029H88.25000029c-15.00000029 0-26.25000029-11.25-26.25000029-26.24999942C62 73.25 73.25 62 88.25000029 62h847.49999942c15.00000029 0 26.25000029 11.25 26.25000029 26.25000029 0 15.00000029-11.25 26.25000029-26.25000029 26.24999942z" p-id="6669"></path><path d="M268.25000029 962c-15.00000029 0-26.25000029-11.25-26.25000029-26.25000029V88.25000029c3.75000029-15.00000029 15.00000029-26.25000029 26.25000029-26.25000029 15.00000029 0 26.25000029 11.25 26.24999942 26.25000029v847.49999942c0 15.00000029-11.25 26.25000029-26.24999942 26.25000029z" p-id="6670"></path><path d="M935.74999971 538.25000029H268.25000029c-15.00000029 0-26.25000029-11.25-26.25000029-26.25000029 0-15.00000029 11.25-26.25000029 26.25000029-26.25000029h667.49999942c15.00000029 0 26.25000029 11.25 26.25000029 26.25000029 0 15.00000029-11.25 26.25000029-26.25000029 26.25000029z" p-id="6671"></path></svg>