<svg t="1615881558127" class="icon" viewBox="0 0 1024 1024" version="1.1" xmlns="http://www.w3.org/2000/svg" p-id="8786" width="128" height="128"><path d="M579.2 60.8c25.6 99.2 118.4 172.8 230.4 172.8 19.2 0 41.6-3.2 64-9.6l70.4 118.4c-44.8 41.6-70.4 102.4-70.4 166.4s25.6 121.6 70.4 166.4L873.6 800c-19.2-6.4-41.6-9.6-64-9.6-112 0-204.8 73.6-230.4 172.8h-140.8C416 864 320 790.4 211.2 790.4c-19.2 0-41.6 3.2-64 9.6l-70.4-118.4C121.6 636.8 147.2 576 147.2 512s-25.6-121.6-70.4-166.4L147.2 224c22.4 6.4 41.6 9.6 64 9.6C320 233.6 416 160 441.6 60.8h137.6zM633.6 0h-243.2c0 96-80 172.8-179.2 172.8-32 0-64-9.6-89.6-22.4L0 361.6c54.4 32 89.6 86.4 89.6 150.4S54.4 633.6 0 662.4l121.6 211.2c25.6-12.8 57.6-22.4 89.6-22.4 99.2 0 179.2 76.8 179.2 172.8h243.2c0-96 80-172.8 179.2-172.8 32 0 64 9.6 89.6 22.4l121.6-211.2c-54.4-32-89.6-86.4-89.6-150.4s38.4-121.6 89.6-150.4l-121.6-211.2c-25.6 12.8-57.6 22.4-89.6 22.4-99.2 0-179.2-76.8-179.2-172.8zM512 659.2c-83.2 0-150.4-64-150.4-147.2 0-80 67.2-147.2 150.4-147.2s150.4 64 150.4 147.2c0 80-67.2 147.2-150.4 147.2z m0-236.8c-51.2 0-89.6 38.4-89.6 89.6s38.4 89.6 89.6 89.6 89.6-38.4 89.6-89.6-41.6-89.6-89.6-89.6z" p-id="8787"></path></svg>