<svg t="1629254405876" class="icon" viewBox="0 0 1177 1024" version="1.1" xmlns="http://www.w3.org/2000/svg" p-id="12177" width="128" height="128"><path d="M301.635715 245.15158a37.285923 37.285923 0 0 0-53.11898 0L11.03771 484.077622a37.874825 37.874825 0 0 0 0 53.43867l237.546329 238.926042a37.454181 37.454181 0 0 0 53.135805 0 37.874825 37.874825 0 0 0 0-53.43867L90.606812 510.86426l211.028903-212.358139a37.773871 37.773871 0 0 0 0-53.354541z m865.147834 238.926042l-237.546329-238.926042a37.302749 37.302749 0 0 0-53.135805 0 37.773871 37.773871 0 0 0 0 53.354541l211.028903 212.358139-211.028903 212.27401a37.874825 37.874825 0 0 0 0 53.43867 37.454181 37.454181 0 0 0 53.135805 0l237.546329-238.926042a37.874825 37.874825 0 0 0 0-53.505973zM843.156542 5.367423a38.699289 38.699289 0 0 0-53.43867 14.587949l-469.439195 944.447724a39.877093 39.877093 0 0 0 14.318737 54.229481 38.817069 38.817069 0 0 0 53.522798-14.571123l469.439196-944.46455a39.893919 39.893919 0 0 0-14.402866-54.229481z" p-id="12178"></path></svg>