<svg t="1615382405348" class="icon" viewBox="0 0 1024 1024" version="1.1" xmlns="http://www.w3.org/2000/svg" p-id="9988" width="200" height="200"><path d="M377.018182 781.963636v93.090909h605.090909v-93.090909h-605.090909z m-232.727273-27.927272c-37.236364 0-69.818182 32.581818-69.818182 69.818181s32.581818 69.818182 69.818182 69.818182 69.818182-32.581818 69.818182-69.818182-32.581818-69.818182-69.818182-69.818181z m232.727273-251.345455v93.090909h605.090909v-93.090909h-605.090909z m-158.254546-93.090909l-93.090909 93.090909H51.2v93.090909h111.709091l121.018182-121.018182-65.163637-65.163636z m158.254546-186.181818v93.090909h605.090909v-93.090909h-605.090909z m-158.254546-93.090909l-93.090909 93.090909H51.2v93.090909h111.709091l121.018182-121.018182-65.163637-65.163636z" p-id="9989"></path></svg>